<?xml version="1.0" encoding="iso-8859-1"?>
<!-- Generator: Adobe Illustrator 19.0.0, SVG Export Plug-In . SVG Version: 6.00 Build 0)  -->
<svg version="1.1" id="Capa_1" xmlns="http://www.w3.org/2000/svg" xmlns:xlink="http://www.w3.org/1999/xlink" x="0px" y="0px"
	 viewBox="0 0 480.737 480.737" style="enable-background:new 0 0 480.737 480.737;" xml:space="preserve" fill="white">
<g>
	<g>
		<path d="M349.362,1.039c-2.426-1.36-5.385-1.362-7.814-0.006c-3.857,2.155-5.237,7.029-3.082,10.886
			c40.328,72.547,40.328,160.777,0,233.324c-64.431,115.906-210.622,157.635-326.528,93.204c-2.441-1.38-5.426-1.381-7.869-0.003
			c-3.848,2.171-5.207,7.051-3.035,10.899c45.292,81.055,130.853,131.304,223.704,131.376c92.8-0.038,178.317-50.282,223.52-131.328
			C517.144,225.887,472.866,69.924,349.362,1.039z M364.946,419.175c-107.501,77.541-257.507,53.253-335.048-54.248
			c63.167,26.385,134.267,26.385,197.434,0c130.522-54.52,192.134-204.526,137.614-335.048
			c20.875,15.057,39.191,33.373,54.248,54.248C496.735,191.628,472.447,341.634,364.946,419.175z"/>
	</g>
</g>
<g>
</g>
<g>
</g>
<g>
</g>
<g>
</g>
<g>
</g>
<g>
</g>
<g>
</g>
<g>
</g>
<g>
</g>
<g>
</g>
<g>
</g>
<g>
</g>
<g>
</g>
<g>
</g>
<g>
</g>
</svg>
